<svg width="16" height="16" viewBox="0 0 16 16" fill="none" xmlns="http://www.w3.org/2000/svg">
<rect width="16" height="16" fill="white"/>
<path d="M3.20833 7.85556C3.33611 7.85556 3.44444 7.83981 3.53333 7.80833C3.62407 7.775 3.69815 7.72963 3.75556 7.67222C3.81296 7.61481 3.85463 7.54815 3.88056 7.47222C3.90648 7.39444 3.91944 7.31111 3.91944 7.22222C3.91944 7.04444 3.86111 6.90556 3.74444 6.80556C3.62963 6.70556 3.45093 6.65556 3.20833 6.65556H2.83056V7.85556H3.20833ZM5.20278 10H4.35278C4.19537 10 4.08241 9.94074 4.01389 9.82222L3.34167 8.64722C3.31019 8.59722 3.275 8.56111 3.23611 8.53889C3.19722 8.51481 3.14167 8.50278 3.06944 8.50278H2.83056V10H1.89167V5.95278H3.20833C3.50093 5.95278 3.75 5.98333 3.95556 6.04444C4.16296 6.1037 4.33148 6.18704 4.46111 6.29444C4.59259 6.40185 4.68796 6.5287 4.74722 6.675C4.80648 6.8213 4.83611 6.98056 4.83611 7.15278C4.83611 7.28426 4.81852 7.40833 4.78333 7.525C4.74815 7.64167 4.6963 7.75 4.62778 7.85C4.55926 7.94815 4.47407 8.03611 4.37222 8.11389C4.27222 8.19167 4.15648 8.25556 4.025 8.30556C4.08611 8.33704 4.14352 8.37685 4.19722 8.425C4.25093 8.4713 4.29907 8.52685 4.34167 8.59167L5.20278 10ZM6.48737 10H5.54293V5.95278H6.48737V10ZM9.5043 6.775C9.47652 6.81944 9.44689 6.85278 9.41541 6.875C9.38578 6.89722 9.34689 6.90833 9.29874 6.90833C9.25615 6.90833 9.20985 6.89537 9.15985 6.86944C9.1117 6.84167 9.05615 6.81111 8.99319 6.77778C8.93207 6.74444 8.8617 6.71481 8.78207 6.68889C8.70245 6.66111 8.6117 6.64722 8.50985 6.64722C8.33393 6.64722 8.20245 6.68518 8.11541 6.76111C8.03022 6.83518 7.98763 6.93611 7.98763 7.06389C7.98763 7.14537 8.01356 7.21296 8.06541 7.26667C8.11726 7.32037 8.18485 7.36667 8.26819 7.40556C8.35337 7.44444 8.44967 7.48056 8.55707 7.51389C8.66633 7.54537 8.77745 7.58148 8.89041 7.62222C9.00337 7.66111 9.11356 7.70741 9.22096 7.76111C9.33022 7.81481 9.42652 7.88333 9.50985 7.96667C9.59504 8.05 9.66356 8.15185 9.71541 8.27222C9.76726 8.39074 9.79319 8.53426 9.79319 8.70278C9.79319 8.88981 9.76078 9.06481 9.69596 9.22778C9.63115 9.39074 9.5367 9.53333 9.41263 9.65556C9.29041 9.77593 9.13856 9.8713 8.95707 9.94167C8.77745 10.0102 8.57282 10.0444 8.34319 10.0444C8.21726 10.0444 8.08856 10.0315 7.95707 10.0056C7.82745 9.97963 7.70152 9.94352 7.5793 9.89722C7.45707 9.84907 7.34226 9.79259 7.23485 9.72778C7.12745 9.66296 7.03393 9.59074 6.9543 9.51111L7.23207 9.07222C7.2543 9.04074 7.283 9.01481 7.31819 8.99444C7.35522 8.97222 7.39504 8.96111 7.43763 8.96111C7.49319 8.96111 7.54874 8.9787 7.6043 9.01389C7.6617 9.04907 7.72559 9.08796 7.79596 9.13056C7.86819 9.17315 7.95059 9.21204 8.04319 9.24722C8.13578 9.28241 8.24504 9.3 8.37096 9.3C8.54133 9.3 8.67374 9.26296 8.76819 9.18889C8.86263 9.11296 8.90985 8.99352 8.90985 8.83056C8.90985 8.73611 8.88393 8.65926 8.83208 8.6C8.78022 8.54074 8.7117 8.49167 8.62652 8.45278C8.54319 8.41389 8.44782 8.37963 8.34041 8.35C8.233 8.32037 8.12282 8.28796 8.00985 8.25278C7.89689 8.21574 7.7867 8.1713 7.6793 8.11944C7.57189 8.06574 7.47559 7.9963 7.39041 7.91111C7.30707 7.82407 7.23948 7.71667 7.18763 7.58889C7.13578 7.45926 7.10985 7.3 7.10985 7.11111C7.10985 6.95926 7.14041 6.81111 7.20152 6.66667C7.26263 6.52222 7.35245 6.39352 7.47096 6.28056C7.58948 6.16759 7.73485 6.07778 7.90707 6.01111C8.0793 5.94259 8.27652 5.90833 8.49874 5.90833C8.62282 5.90833 8.74319 5.91852 8.85985 5.93889C8.97837 5.95741 9.09041 5.98611 9.19596 6.025C9.30152 6.06204 9.39967 6.10741 9.49041 6.16111C9.583 6.21296 9.66541 6.27222 9.73763 6.33889L9.5043 6.775ZM12.391 8.45278L12.016 7.34444C11.9882 7.27407 11.9586 7.19167 11.9271 7.09722C11.8956 7.00093 11.8642 6.89722 11.8327 6.78611C11.8049 6.89907 11.7753 7.0037 11.7438 7.1C11.7123 7.1963 11.6827 7.27963 11.6549 7.35L11.2827 8.45278H12.391ZM13.8827 10H13.1549C13.0734 10 13.0077 9.98148 12.9577 9.94444C12.9077 9.90556 12.8697 9.85648 12.8438 9.79722L12.6049 9.09167H11.066L10.8271 9.79722C10.8068 9.84907 10.7697 9.8963 10.716 9.93889C10.6642 9.97963 10.5993 10 10.5216 10H9.78824L11.3549 5.95278H12.316L13.8827 10Z" fill="black"/>
</svg>
